<svg width="8650" height="2530" viewBox="0 0 8650 2530" fill="none" xmlns="http://www.w3.org/2000/svg">
<path d="M35.3693 318.273V45.5454H98.4375V66.4261H59.233V297.392H98.4375V318.273H35.3693ZM204.998 293.983C190.936 293.983 178.4 291.568 167.392 286.739C156.454 281.909 147.754 275.197 141.291 266.604C134.899 257.939 131.419 247.889 130.85 236.455H157.697C158.265 243.486 160.68 249.558 164.941 254.672C169.203 259.714 174.778 263.621 181.667 266.391C188.556 269.161 196.191 270.545 204.572 270.545C213.947 270.545 222.257 268.912 229.501 265.645C236.745 262.378 242.427 257.832 246.547 252.009C250.666 246.185 252.726 239.438 252.726 231.767C252.726 223.741 250.737 216.675 246.76 210.567C242.782 204.388 236.958 199.558 229.288 196.078C221.618 192.598 212.243 190.858 201.163 190.858H183.691V167.42H201.163C209.828 167.42 217.427 165.858 223.961 162.733C230.566 159.608 235.716 155.205 239.409 149.523C243.173 143.841 245.055 137.165 245.055 129.494C245.055 122.108 243.422 115.68 240.154 110.212C236.887 104.743 232.271 100.482 226.305 97.4276C220.41 94.3736 213.45 92.8466 205.424 92.8466C197.896 92.8466 190.794 94.2315 184.118 97.0014C177.512 99.7003 172.115 103.642 167.924 108.827C163.734 113.94 161.461 120.119 161.106 127.364H135.538C135.964 115.929 139.409 105.915 145.872 97.321C152.335 88.6562 160.787 81.9091 171.227 77.0795C181.738 72.25 193.279 69.8352 205.851 69.8352C219.345 69.8352 230.922 72.5696 240.581 78.0383C250.24 83.4361 257.662 90.5739 262.846 99.4517C268.031 108.33 270.623 117.918 270.623 128.216C270.623 140.503 267.392 150.979 260.929 159.643C254.537 168.308 245.836 174.31 234.828 177.648V179.352C248.606 181.625 259.366 187.484 267.108 196.93C274.849 206.305 278.72 217.918 278.72 231.767C278.72 243.628 275.488 254.281 269.025 263.727C262.633 273.102 253.897 280.489 242.818 285.886C231.738 291.284 219.132 293.983 204.998 293.983ZM353.48 261.17L351.776 272.676C350.568 280.773 348.722 289.438 346.236 298.67C343.821 307.903 341.3 316.604 338.672 324.771C336.044 332.939 333.878 339.438 332.173 344.267H312.997C313.92 339.722 315.128 333.72 316.619 326.263C318.111 318.805 319.602 310.46 321.094 301.227C322.656 292.065 323.935 282.69 324.929 273.102L326.207 261.17H353.48ZM478.897 246.256V224.523L574.778 72.8182H590.545V106.483H579.892L507.449 221.114V222.818H636.568V246.256H478.897ZM581.596 291V239.651V229.53V72.8182H606.738V291H581.596ZM704.164 261.17L702.459 272.676C701.252 280.773 699.405 289.438 696.919 298.67C694.505 307.903 691.983 316.604 689.355 324.771C686.728 332.939 684.561 339.438 682.857 344.267H663.681C664.604 339.722 665.811 333.72 667.303 326.263C668.794 318.805 670.286 310.46 671.777 301.227C673.34 292.065 674.618 282.69 675.613 273.102L676.891 261.17H704.164ZM911.399 72.8182V291H884.979V100.517H883.7L830.433 135.886V109.04L884.979 72.8182H911.399ZM1050.85 72.8182V291H1024.43V100.517H1023.15L969.886 135.886V109.04L1024.43 72.8182H1050.85ZM1138.64 261.17L1136.93 272.676C1135.72 280.773 1133.88 289.438 1131.39 298.67C1128.98 307.903 1126.46 316.604 1123.83 324.771C1121.2 332.939 1119.03 339.438 1117.33 344.267H1098.15C1099.08 339.722 1100.28 333.72 1101.78 326.263C1103.27 318.805 1104.76 310.46 1106.25 301.227C1107.81 292.065 1109.09 282.69 1110.09 273.102L1111.36 261.17H1138.64ZM1345.87 72.8182V291H1319.45V100.517H1318.17L1264.91 135.886V109.04L1319.45 72.8182H1345.87ZM1482.34 293.983C1468.28 293.983 1455.74 291.568 1444.74 286.739C1433.8 281.909 1425.1 275.197 1418.63 266.604C1412.24 257.939 1408.76 247.889 1408.19 236.455H1435.04C1435.61 243.486 1438.02 249.558 1442.29 254.672C1446.55 259.714 1452.12 263.621 1459.01 266.391C1465.9 269.161 1473.54 270.545 1481.92 270.545C1491.29 270.545 1499.6 268.912 1506.84 265.645C1514.09 262.378 1519.77 257.832 1523.89 252.009C1528.01 246.185 1530.07 239.438 1530.07 231.767C1530.07 223.741 1528.08 216.675 1524.1 210.567C1520.13 204.388 1514.3 199.558 1506.63 196.078C1498.96 192.598 1489.59 190.858 1478.51 190.858H1461.04V167.42H1478.51C1487.17 167.42 1494.77 165.858 1501.31 162.733C1507.91 159.608 1513.06 155.205 1516.75 149.523C1520.52 143.841 1522.4 137.165 1522.4 129.494C1522.4 122.108 1520.77 115.68 1517.5 110.212C1514.23 104.743 1509.61 100.482 1503.65 97.4276C1497.75 94.3736 1490.79 92.8466 1482.77 92.8466C1475.24 92.8466 1468.14 94.2315 1461.46 97.0014C1454.86 99.7003 1449.46 103.642 1445.27 108.827C1441.08 113.94 1438.81 120.119 1438.45 127.364H1412.88C1413.31 115.929 1416.75 105.915 1423.22 97.321C1429.68 88.6562 1438.13 81.9091 1448.57 77.0795C1459.08 72.25 1470.62 69.8352 1483.19 69.8352C1496.69 69.8352 1508.27 72.5696 1517.92 78.0383C1527.58 83.4361 1535.01 90.5739 1540.19 99.4517C1545.37 108.33 1547.97 117.918 1547.97 128.216C1547.97 140.503 1544.74 150.979 1538.27 159.643C1531.88 168.308 1523.18 174.31 1512.17 177.648V179.352C1525.95 181.625 1536.71 187.484 1544.45 196.93C1552.19 206.305 1556.06 217.918 1556.06 231.767C1556.06 243.628 1552.83 254.281 1546.37 263.727C1539.98 273.102 1531.24 280.489 1520.16 285.886C1509.08 291.284 1496.48 293.983 1482.34 293.983ZM1630.82 261.17L1629.12 272.676C1627.91 280.773 1626.07 289.438 1623.58 298.67C1621.16 307.903 1618.64 316.604 1616.02 324.771C1613.39 332.939 1611.22 339.438 1609.52 344.267H1590.34C1591.26 339.722 1592.47 333.72 1593.96 326.263C1595.45 318.805 1596.95 310.46 1598.44 301.227C1600 292.065 1601.28 282.69 1602.27 273.102L1603.55 261.17H1630.82ZM1838.06 72.8182V291H1811.64V100.517H1810.36L1757.09 135.886V109.04L1811.64 72.8182H1838.06ZM1977.51 72.8182V291H1951.09V100.517H1949.81L1896.55 135.886V109.04L1951.09 72.8182H1977.51ZM2065.3 261.17L2063.59 272.676C2062.38 280.773 2060.54 289.438 2058.05 298.67C2055.64 307.903 2053.12 316.604 2050.49 324.771C2047.86 332.939 2045.69 339.438 2043.99 344.267H2024.81C2025.74 339.722 2026.94 333.72 2028.44 326.263C2029.93 318.805 2031.42 310.46 2032.91 301.227C2034.47 292.065 2035.75 282.69 2036.75 273.102L2038.02 261.17H2065.3ZM2190.71 246.256V224.523L2286.59 72.8182H2302.36V106.483H2291.71L2219.26 221.114V222.818H2348.38V246.256H2190.71ZM2293.41 291V239.651V229.53V72.8182H2318.55V291H2293.41ZM2415.98 261.17L2414.28 272.676C2413.07 280.773 2411.22 289.438 2408.74 298.67C2406.32 307.903 2403.8 316.604 2401.17 324.771C2398.54 332.939 2396.38 339.438 2394.67 344.267H2375.5C2376.42 339.722 2377.63 333.72 2379.12 326.263C2380.61 318.805 2382.1 310.46 2383.59 301.227C2385.16 292.065 2386.43 282.69 2387.43 273.102L2388.71 261.17H2415.98ZM2541.4 246.256V224.523L2637.28 72.8182H2653.05V106.483H2642.39L2569.95 221.114V222.818H2699.07V246.256H2541.4ZM2644.1 291V239.651V229.53V72.8182H2669.24V291H2644.1ZM2766.66 261.17L2764.96 272.676C2763.75 280.773 2761.91 289.438 2759.42 298.67C2757 307.903 2754.48 316.604 2751.86 324.771C2749.23 332.939 2747.06 339.438 2745.36 344.267H2726.18C2727.1 339.722 2728.31 333.72 2729.8 326.263C2731.29 318.805 2732.79 310.46 2734.28 301.227C2735.84 292.065 2737.12 282.69 2738.11 273.102L2739.39 261.17H2766.66ZM2904.01 291L3001.6 97.9602V96.2557H2889.1V72.8182H3028.87V97.5341L2931.71 291H2904.01ZM3069.01 261.17L3067.3 272.676C3066.1 280.773 3064.25 289.438 3061.76 298.67C3059.35 307.903 3056.83 316.604 3054.2 324.771C3051.57 332.939 3049.41 339.438 3047.7 344.267H3028.52C3029.45 339.722 3030.66 333.72 3032.15 326.263C3033.64 318.805 3035.13 310.46 3036.62 301.227C3038.18 292.065 3039.46 282.69 3040.46 273.102L3041.73 261.17H3069.01ZM3273.26 293.983C3259.2 293.983 3246.66 291.568 3235.65 286.739C3224.72 281.909 3216.02 275.197 3209.55 266.604C3203.16 257.939 3199.68 247.889 3199.11 236.455H3225.96C3226.53 243.486 3228.94 249.558 3233.2 254.672C3237.46 259.714 3243.04 263.621 3249.93 266.391C3256.82 269.161 3264.45 270.545 3272.83 270.545C3282.21 270.545 3290.52 268.912 3297.76 265.645C3305.01 262.378 3310.69 257.832 3314.81 252.009C3318.93 246.185 3320.99 239.438 3320.99 231.767C3320.99 223.741 3319 216.675 3315.02 210.567C3311.04 204.388 3305.22 199.558 3297.55 196.078C3289.88 192.598 3280.5 190.858 3269.42 190.858H3251.95V167.42H3269.42C3278.09 167.42 3285.69 165.858 3292.22 162.733C3298.83 159.608 3303.98 155.205 3307.67 149.523C3311.43 143.841 3313.32 137.165 3313.32 129.494C3313.32 122.108 3311.68 115.68 3308.42 110.212C3305.15 104.743 3300.53 100.482 3294.57 97.4276C3288.67 94.3736 3281.71 92.8466 3273.69 92.8466C3266.16 92.8466 3259.06 94.2315 3252.38 97.0014C3245.77 99.7003 3240.38 103.642 3236.19 108.827C3232 113.94 3229.72 120.119 3229.37 127.364H3203.8C3204.23 115.929 3207.67 105.915 3214.13 97.321C3220.6 88.6562 3229.05 81.9091 3239.49 77.0795C3250 72.25 3261.54 69.8352 3274.11 69.8352C3287.61 69.8352 3299.18 72.5696 3308.84 78.0383C3318.5 83.4361 3325.92 90.5739 3331.11 99.4517C3336.29 108.33 3338.88 117.918 3338.88 128.216C3338.88 140.503 3335.65 150.979 3329.19 159.643C3322.8 168.308 3314.1 174.31 3303.09 177.648V179.352C3316.87 181.625 3327.63 187.484 3335.37 196.93C3343.11 206.305 3346.98 217.918 3346.98 231.767C3346.98 243.628 3343.75 254.281 3337.29 263.727C3330.89 273.102 3322.16 280.489 3311.08 285.886C3300 291.284 3287.39 293.983 3273.26 293.983ZM3441.26 45.5454V318.273H3378.2V297.392H3417.4V66.4261H3378.2V45.5454H3441.26Z" fill="#006CA9"/>
<path d="M5208.37 318.273V45.5454H5271.44V66.4261H5232.23V297.392H5271.44V318.273H5208.37ZM5299.16 246.256V224.523L5395.04 72.8182H5410.81V106.483H5400.16L5327.71 221.114V222.818H5456.83V246.256H5299.16ZM5401.86 291V239.651V229.53V72.8182H5427V291H5401.86ZM5524.43 261.17L5522.72 272.676C5521.52 280.773 5519.67 289.438 5517.19 298.67C5514.77 307.903 5512.25 316.604 5509.62 324.771C5506.99 332.939 5504.83 339.438 5503.12 344.267H5483.95C5484.87 339.722 5486.08 333.72 5487.57 326.263C5489.06 318.805 5490.55 310.46 5492.04 301.227C5493.61 292.065 5494.88 282.69 5495.88 273.102L5497.16 261.17H5524.43ZM5649.85 246.256V224.523L5745.73 72.8182H5761.49V106.483H5750.84L5678.4 221.114V222.818H5807.52V246.256H5649.85ZM5752.55 291V239.651V229.53V72.8182H5777.69V291H5752.55ZM5875.11 261.17L5873.41 272.676C5872.2 280.773 5870.35 289.438 5867.87 298.67C5865.45 307.903 5862.93 316.604 5860.3 324.771C5857.68 332.939 5855.51 339.438 5853.81 344.267H5834.63C5835.55 339.722 5836.76 333.72 5838.25 326.263C5839.74 318.805 5841.24 310.46 5842.73 301.227C5844.29 292.065 5845.57 282.69 5846.56 273.102L5847.84 261.17H5875.11ZM6000.53 246.256V224.523L6096.41 72.8182H6112.18V106.483H6101.52L6029.08 221.114V222.818H6158.2V246.256H6000.53ZM6103.23 291V239.651V229.53V72.8182H6128.37V291H6103.23ZM6225.8 261.17L6224.09 272.676C6222.88 280.773 6221.04 289.438 6218.55 298.67C6216.14 307.903 6213.62 316.604 6210.99 324.771C6208.36 332.939 6206.19 339.438 6204.49 344.267H6185.31C6186.24 339.722 6187.44 333.72 6188.94 326.263C6190.43 318.805 6191.92 310.46 6193.41 301.227C6194.97 292.065 6196.25 282.69 6197.25 273.102L6198.52 261.17H6225.8ZM6430.05 293.983C6415.99 293.983 6403.45 291.568 6392.44 286.739C6381.5 281.909 6372.8 275.197 6366.34 266.604C6359.95 257.939 6356.47 247.889 6355.9 236.455H6382.75C6383.32 243.486 6385.73 249.558 6389.99 254.672C6394.25 259.714 6399.83 263.621 6406.72 266.391C6413.61 269.161 6421.24 270.545 6429.62 270.545C6439 270.545 6447.31 268.912 6454.55 265.645C6461.8 262.378 6467.48 257.832 6471.6 252.009C6475.72 246.185 6477.78 239.438 6477.78 231.767C6477.78 223.741 6475.79 216.675 6471.81 210.567C6467.83 204.388 6462.01 199.558 6454.34 196.078C6446.67 192.598 6437.29 190.858 6426.21 190.858H6408.74V167.42H6426.21C6434.88 167.42 6442.48 165.858 6449.01 162.733C6455.62 159.608 6460.77 155.205 6464.46 149.523C6468.22 143.841 6470.11 137.165 6470.11 129.494C6470.11 122.108 6468.47 115.68 6465.21 110.212C6461.94 104.743 6457.32 100.482 6451.36 97.4276C6445.46 94.3736 6438.5 92.8466 6430.48 92.8466C6422.95 92.8466 6415.84 94.2315 6409.17 97.0014C6402.56 99.7003 6397.17 103.642 6392.98 108.827C6388.78 113.94 6386.51 120.119 6386.16 127.364H6360.59C6361.01 115.929 6364.46 105.915 6370.92 97.321C6377.39 88.6562 6385.84 81.9091 6396.28 77.0795C6406.79 72.25 6418.33 69.8352 6430.9 69.8352C6444.4 69.8352 6455.97 72.5696 6465.63 78.0383C6475.29 83.4361 6482.71 90.5739 6487.9 99.4517C6493.08 108.33 6495.67 117.918 6495.67 128.216C6495.67 140.503 6492.44 150.979 6485.98 159.643C6479.59 168.308 6470.89 174.31 6459.88 177.648V179.352C6473.66 181.625 6484.42 187.484 6492.16 196.93C6499.9 206.305 6503.77 217.918 6503.77 231.767C6503.77 243.628 6500.54 254.281 6494.08 263.727C6487.68 273.102 6478.95 280.489 6467.87 285.886C6456.79 291.284 6444.18 293.983 6430.05 293.983ZM6578.53 261.17L6576.83 272.676C6575.62 280.773 6573.77 289.438 6571.29 298.67C6568.87 307.903 6566.35 316.604 6563.72 324.771C6561.09 332.939 6558.93 339.438 6557.22 344.267H6538.05C6538.97 339.722 6540.18 333.72 6541.67 326.263C6543.16 318.805 6544.65 310.46 6546.14 301.227C6547.71 292.065 6548.99 282.69 6549.98 273.102L6551.26 261.17H6578.53ZM6782.78 293.983C6768.72 293.983 6756.19 291.568 6745.18 286.739C6734.24 281.909 6725.54 275.197 6719.08 266.604C6712.68 257.939 6709.2 247.889 6708.64 236.455H6735.48C6736.05 243.486 6738.47 249.558 6742.73 254.672C6746.99 259.714 6752.56 263.621 6759.45 266.391C6766.34 269.161 6773.98 270.545 6782.36 270.545C6791.73 270.545 6800.04 268.912 6807.29 265.645C6814.53 262.378 6820.21 257.832 6824.33 252.009C6828.45 246.185 6830.51 239.438 6830.51 231.767C6830.51 223.741 6828.52 216.675 6824.54 210.567C6820.57 204.388 6814.74 199.558 6807.07 196.078C6799.4 192.598 6790.03 190.858 6778.95 190.858H6761.48V167.42H6778.95C6787.61 167.42 6795.21 165.858 6801.75 162.733C6808.35 159.608 6813.5 155.205 6817.19 149.523C6820.96 143.841 6822.84 137.165 6822.84 129.494C6822.84 122.108 6821.21 115.68 6817.94 110.212C6814.67 104.743 6810.06 100.482 6804.09 97.4276C6798.2 94.3736 6791.24 92.8466 6783.21 92.8466C6775.68 92.8466 6768.58 94.2315 6761.9 97.0014C6755.3 99.7003 6749.9 103.642 6745.71 108.827C6741.52 113.94 6739.25 120.119 6738.89 127.364H6713.32C6713.75 115.929 6717.19 105.915 6723.66 97.321C6730.12 88.6562 6738.57 81.9091 6749.01 77.0795C6759.52 72.25 6771.06 69.8352 6783.64 69.8352C6797.13 69.8352 6808.71 72.5696 6818.37 78.0383C6828.02 83.4361 6835.45 90.5739 6840.63 99.4517C6845.82 108.33 6848.41 117.918 6848.41 128.216C6848.41 140.503 6845.18 150.979 6838.71 159.643C6832.32 168.308 6823.62 174.31 6812.61 177.648V179.352C6826.39 181.625 6837.15 187.484 6844.89 196.93C6852.63 206.305 6856.5 217.918 6856.5 231.767C6856.5 243.628 6853.27 254.281 6846.81 263.727C6840.42 273.102 6831.68 280.489 6820.6 285.886C6809.52 291.284 6796.92 293.983 6782.78 293.983ZM6931.27 261.17L6929.56 272.676C6928.35 280.773 6926.51 289.438 6924.02 298.67C6921.61 307.903 6919.08 316.604 6916.46 324.771C6913.83 332.939 6911.66 339.438 6909.96 344.267H6890.78C6891.71 339.722 6892.91 333.72 6894.4 326.263C6895.9 318.805 6897.39 310.46 6898.88 301.227C6900.44 292.065 6901.72 282.69 6902.71 273.102L6903.99 261.17H6931.27ZM7138.5 72.8182V291H7112.08V100.517H7110.8L7057.53 135.886V109.04L7112.08 72.8182H7138.5ZM7277.95 72.8182V291H7251.53V100.517H7250.25L7196.99 135.886V109.04L7251.53 72.8182H7277.95ZM7365.74 261.17L7364.03 272.676C7362.83 280.773 7360.98 289.438 7358.49 298.67C7356.08 307.903 7353.56 316.604 7350.93 324.771C7348.3 332.939 7346.14 339.438 7344.43 344.267H7325.25C7326.18 339.722 7327.39 333.72 7328.88 326.263C7330.37 318.805 7331.86 310.46 7333.35 301.227C7334.91 292.065 7336.19 282.69 7337.19 273.102L7338.47 261.17H7365.74ZM7572.97 72.8182V291H7546.55V100.517H7545.27L7492.01 135.886V109.04L7546.55 72.8182H7572.97ZM7712.43 72.8182V291H7686.01V100.517H7684.73L7631.46 135.886V109.04L7686.01 72.8182H7712.43ZM7800.21 261.17L7798.51 272.676C7797.3 280.773 7795.45 289.438 7792.97 298.67C7790.55 307.903 7788.03 316.604 7785.4 324.771C7782.77 332.939 7780.61 339.438 7778.9 344.267H7759.73C7760.65 339.722 7761.86 333.72 7763.35 326.263C7764.84 318.805 7766.33 310.46 7767.82 301.227C7769.39 292.065 7770.67 282.69 7771.66 273.102L7772.94 261.17H7800.21ZM7937.56 291L8035.14 97.9602V96.2557H7922.64V72.8182H8062.42V97.5341L7965.26 291H7937.56ZM8102.55 261.17L8100.85 272.676C8099.64 280.773 8097.8 289.438 8095.31 298.67C8092.9 307.903 8090.37 316.604 8087.75 324.771C8085.12 332.939 8082.95 339.438 8081.25 344.267H8062.07C8062.99 339.722 8064.2 333.72 8065.69 326.263C8067.19 318.805 8068.68 310.46 8070.17 301.227C8071.73 292.065 8073.01 282.69 8074 273.102L8075.28 261.17H8102.55ZM8309.79 72.8182V291H8283.37V100.517H8282.09L8228.82 135.886V109.04L8283.37 72.8182H8309.79ZM8446.26 293.983C8432.2 293.983 8419.66 291.568 8408.65 286.739C8397.72 281.909 8389.02 275.197 8382.55 266.604C8376.16 257.939 8372.68 247.889 8372.11 236.455H8398.96C8399.53 243.486 8401.94 249.558 8406.2 254.672C8410.46 259.714 8416.04 263.621 8422.93 266.391C8429.82 269.161 8437.45 270.545 8445.83 270.545C8455.21 270.545 8463.52 268.912 8470.76 265.645C8478.01 262.378 8483.69 257.832 8487.81 252.009C8491.93 246.185 8493.99 239.438 8493.99 231.767C8493.99 223.741 8492 216.675 8488.02 210.567C8484.04 204.388 8478.22 199.558 8470.55 196.078C8462.88 192.598 8453.5 190.858 8442.42 190.858H8424.95V167.42H8442.42C8451.09 167.42 8458.69 165.858 8465.22 162.733C8471.83 159.608 8476.98 155.205 8480.67 149.523C8484.43 143.841 8486.32 137.165 8486.32 129.494C8486.32 122.108 8484.68 115.68 8481.42 110.212C8478.15 104.743 8473.53 100.482 8467.57 97.4276C8461.67 94.3736 8454.71 92.8466 8446.69 92.8466C8439.16 92.8466 8432.06 94.2315 8425.38 97.0014C8418.77 99.7003 8413.38 103.642 8409.19 108.827C8405 113.94 8402.72 120.119 8402.37 127.364H8376.8C8377.23 115.929 8380.67 105.915 8387.13 97.321C8393.6 88.6562 8402.05 81.9091 8412.49 77.0795C8423 72.25 8434.54 69.8352 8447.11 69.8352C8460.61 69.8352 8472.18 72.5696 8481.84 78.0383C8491.5 83.4361 8498.92 90.5739 8504.11 99.4517C8509.29 108.33 8511.88 117.918 8511.88 128.216C8511.88 140.503 8508.65 150.979 8502.19 159.643C8495.8 168.308 8487.1 174.31 8476.09 177.648V179.352C8489.87 181.625 8500.63 187.484 8508.37 196.93C8516.11 206.305 8519.98 217.918 8519.98 231.767C8519.98 243.628 8516.75 254.281 8510.29 263.727C8503.89 273.102 8495.16 280.489 8484.08 285.886C8473 291.284 8460.39 293.983 8446.26 293.983ZM8614.26 45.5454V318.273H8551.2V297.392H8590.4V66.4261H8551.2V45.5454H8614.26Z" fill="#FA8F00"/>
<path d="M3588.62 657.409C3572.85 657.409 3559.25 653.929 3547.82 646.969C3536.45 639.938 3527.68 630.136 3521.5 617.565C3515.39 604.923 3512.34 590.222 3512.34 573.46C3512.34 556.699 3515.39 541.926 3521.5 529.142C3527.68 516.287 3536.28 506.273 3547.28 499.099C3558.36 491.855 3571.29 488.233 3586.06 488.233C3594.59 488.233 3603 489.653 3611.31 492.494C3619.62 495.335 3627.18 499.952 3634 506.344C3640.82 512.665 3646.25 521.045 3650.3 531.486C3654.35 541.926 3656.38 554.781 3656.38 570.051V580.705H3530.24V558.972H3630.81C3630.81 549.739 3628.96 541.5 3625.27 534.256C3621.64 527.011 3616.46 521.294 3609.71 517.104C3603.04 512.913 3595.15 510.818 3586.06 510.818C3576.05 510.818 3567.38 513.304 3560.07 518.276C3552.82 523.176 3547.25 529.568 3543.34 537.452C3539.44 545.335 3537.48 553.787 3537.48 562.807V577.295C3537.48 589.653 3539.61 600.129 3543.88 608.723C3548.21 617.246 3554.21 623.744 3561.88 628.219C3569.55 632.622 3578.46 634.824 3588.62 634.824C3595.22 634.824 3601.19 633.901 3606.52 632.054C3611.91 630.136 3616.57 627.295 3620.47 623.531C3624.38 619.696 3627.4 614.937 3629.53 609.256L3653.82 616.074C3651.26 624.312 3646.96 631.557 3640.93 637.807C3634.89 643.986 3627.43 648.815 3618.56 652.295C3609.68 655.705 3599.7 657.409 3588.62 657.409ZM3719.76 435.818V654H3694.62V435.818H3719.76ZM3834.42 657.409C3818.65 657.409 3805.05 653.929 3793.62 646.969C3782.25 639.938 3773.48 630.136 3767.3 617.565C3761.2 604.923 3758.14 590.222 3758.14 573.46C3758.14 556.699 3761.2 541.926 3767.3 529.142C3773.48 516.287 3782.08 506.273 3793.08 499.099C3804.16 491.855 3817.09 488.233 3831.86 488.233C3840.39 488.233 3848.8 489.653 3857.11 492.494C3865.42 495.335 3872.99 499.952 3879.8 506.344C3886.62 512.665 3892.06 521.045 3896.1 531.486C3900.15 541.926 3902.18 554.781 3902.18 570.051V580.705H3776.04V558.972H3876.61C3876.61 549.739 3874.76 541.5 3871.07 534.256C3867.45 527.011 3862.26 521.294 3855.51 517.104C3848.84 512.913 3840.95 510.818 3831.86 510.818C3821.85 510.818 3813.18 513.304 3805.87 518.276C3798.62 523.176 3793.05 529.568 3789.14 537.452C3785.24 545.335 3783.28 553.787 3783.28 562.807V577.295C3783.28 589.653 3785.41 600.129 3789.68 608.723C3794.01 617.246 3800.01 623.744 3807.68 628.219C3815.35 632.622 3824.26 634.824 3834.42 634.824C3841.03 634.824 3846.99 633.901 3852.32 632.054C3857.72 630.136 3862.37 627.295 3866.27 623.531C3870.18 619.696 3873.2 614.937 3875.33 609.256L3899.62 616.074C3897.06 624.312 3892.77 631.557 3886.73 637.807C3880.69 643.986 3873.23 648.815 3864.36 652.295C3855.48 655.705 3845.5 657.409 3834.42 657.409ZM3940.42 654V490.364H3964.71V515.932H3966.84C3970.25 507.196 3975.76 500.413 3983.35 495.584C3990.95 490.683 4000.08 488.233 4010.73 488.233C4021.53 488.233 4030.51 490.683 4037.69 495.584C4044.93 500.413 4050.58 507.196 4054.63 515.932H4056.33C4060.52 507.48 4066.81 500.768 4075.19 495.797C4083.57 490.754 4093.62 488.233 4105.34 488.233C4119.97 488.233 4131.93 492.814 4141.24 501.976C4150.54 511.067 4155.19 525.236 4155.19 544.483V654H4130.05V544.483C4130.05 532.409 4126.75 523.78 4120.14 518.595C4113.54 513.411 4105.76 510.818 4096.81 510.818C4085.31 510.818 4076.39 514.298 4070.07 521.259C4063.75 528.148 4060.59 536.884 4060.59 547.466V654H4035.02V541.926C4035.02 532.622 4032.01 525.129 4025.97 519.447C4019.93 513.695 4012.15 510.818 4002.64 510.818C3996.1 510.818 3990 512.558 3984.31 516.038C3978.7 519.518 3974.16 524.348 3970.68 530.527C3967.27 536.635 3965.56 543.702 3965.56 551.727V654H3940.42ZM4695.91 490.364V511.67H4607.7V490.364H4695.91ZM4634.12 654V467.778C4634.12 458.403 4636.32 450.591 4640.72 444.341C4645.13 438.091 4650.84 433.403 4657.88 430.278C4664.91 427.153 4672.33 425.591 4680.14 425.591C4686.32 425.591 4691.36 426.088 4695.27 427.082C4699.18 428.077 4702.09 429 4704 429.852L4696.76 451.585C4695.48 451.159 4693.71 450.626 4691.43 449.987C4689.23 449.348 4686.32 449.028 4682.7 449.028C4674.39 449.028 4668.39 451.124 4664.69 455.314C4661.07 459.504 4659.26 465.648 4659.26 473.744V654H4634.12ZM4731.14 654V490.364H4755.43V515.08H4757.14C4760.12 506.983 4765.52 500.413 4773.33 495.371C4781.14 490.328 4789.95 487.807 4799.75 487.807C4801.6 487.807 4803.91 487.842 4806.68 487.913C4809.45 487.984 4811.54 488.091 4812.96 488.233V513.801C4812.11 513.588 4810.16 513.268 4807.1 512.842C4804.12 512.345 4800.96 512.097 4797.62 512.097C4789.67 512.097 4782.56 513.766 4776.31 517.104C4770.14 520.371 4765.24 524.916 4761.61 530.74C4758.06 536.493 4756.29 543.062 4756.29 550.449V654H4731.14ZM4906.39 657.409C4890.63 657.409 4877.02 653.929 4865.59 646.969C4854.23 639.938 4845.46 630.136 4839.28 617.565C4833.17 604.923 4830.11 590.222 4830.11 573.46C4830.11 556.699 4833.17 541.926 4839.28 529.142C4845.46 516.287 4854.05 506.273 4865.06 499.099C4876.14 491.855 4889.06 488.233 4903.84 488.233C4912.36 488.233 4920.77 489.653 4929.08 492.494C4937.39 495.335 4944.96 499.952 4951.78 506.344C4958.59 512.665 4964.03 521.045 4968.08 531.486C4972.12 541.926 4974.15 554.781 4974.15 570.051V580.705H4848.01V558.972H4948.58C4948.58 549.739 4946.73 541.5 4943.04 534.256C4939.42 527.011 4934.23 521.294 4927.49 517.104C4920.81 512.913 4912.93 510.818 4903.84 510.818C4893.82 510.818 4885.16 513.304 4877.84 518.276C4870.6 523.176 4865.02 529.568 4861.12 537.452C4857.21 545.335 4855.26 553.787 4855.26 562.807V577.295C4855.26 589.653 4857.39 600.129 4861.65 608.723C4865.98 617.246 4871.98 623.744 4879.65 628.219C4887.32 632.622 4896.24 634.824 4906.39 634.824C4913 634.824 4918.96 633.901 4924.29 632.054C4929.69 630.136 4934.34 627.295 4938.25 623.531C4942.15 619.696 4945.17 614.937 4947.3 609.256L4971.59 616.074C4969.03 624.312 4964.74 631.557 4958.7 637.807C4952.66 643.986 4945.21 648.815 4936.33 652.295C4927.45 655.705 4917.47 657.409 4906.39 657.409ZM5124.04 715.364V628.858H5121.91C5120.06 631.841 5117.44 635.605 5114.03 640.151C5110.62 644.625 5105.75 648.638 5099.43 652.189C5093.11 655.669 5084.7 657.409 5074.18 657.409C5060.55 657.409 5048.51 653.964 5038.07 647.075C5027.63 640.115 5019.46 630.314 5013.57 617.672C5007.67 604.959 5004.72 589.938 5004.72 572.608C5004.72 555.42 5007.67 540.506 5013.57 527.864C5019.46 515.222 5027.66 505.456 5038.18 498.567C5048.69 491.678 5060.83 488.233 5074.61 488.233C5085.26 488.233 5093.68 490.009 5099.86 493.56C5106.11 497.04 5110.87 501.017 5114.13 505.491C5117.47 509.895 5120.06 513.517 5121.91 516.358H5124.89V490.364H5149.18V715.364H5124.04ZM5077.59 634.824C5087.68 634.824 5096.2 632.196 5103.16 626.94C5110.12 621.614 5115.41 614.263 5119.03 604.888C5122.66 595.442 5124.47 584.54 5124.47 572.182C5124.47 559.966 5122.69 549.277 5119.14 540.115C5115.59 530.882 5110.33 523.709 5103.37 518.595C5096.41 513.411 5087.82 510.818 5077.59 510.818C5066.94 510.818 5058.06 513.553 5050.96 519.021C5043.93 524.419 5038.64 531.77 5035.09 541.074C5031.61 550.307 5029.87 560.676 5029.87 572.182C5029.87 583.83 5031.64 594.412 5035.19 603.929C5038.81 613.375 5044.14 620.903 5051.17 626.514C5058.27 632.054 5067.08 634.824 5077.59 634.824Z" fill="#737370"/>
<path d="M3503.47 1335.26V1313.52L3599.35 1161.82H3615.12V1195.48H3604.47L3532.02 1310.11V1311.82H3661.14V1335.26H3503.47ZM3606.17 1380V1328.65V1318.53V1161.82H3631.31V1380H3606.17ZM4702.91 1382.98C4688.85 1382.98 4676.31 1380.57 4665.31 1375.74C4654.37 1370.91 4645.67 1364.2 4639.2 1355.6C4632.81 1346.94 4629.33 1336.89 4628.76 1325.45H4655.61C4656.18 1332.49 4658.59 1338.56 4662.86 1343.67C4667.12 1348.71 4672.69 1352.62 4679.58 1355.39C4686.47 1358.16 4694.11 1359.55 4702.49 1359.55C4711.86 1359.55 4720.17 1357.91 4727.42 1354.64C4734.66 1351.38 4740.34 1346.83 4744.46 1341.01C4748.58 1335.18 4750.64 1328.44 4750.64 1320.77C4750.64 1312.74 4748.65 1305.67 4744.67 1299.57C4740.7 1293.39 4734.87 1288.56 4727.2 1285.08C4719.53 1281.6 4710.16 1279.86 4699.08 1279.86H4681.61V1256.42H4699.08C4707.74 1256.42 4715.34 1254.86 4721.88 1251.73C4728.48 1248.61 4733.63 1244.2 4737.32 1238.52C4741.09 1232.84 4742.97 1226.16 4742.97 1218.49C4742.97 1211.11 4741.34 1204.68 4738.07 1199.21C4734.8 1193.74 4730.19 1189.48 4724.22 1186.43C4718.32 1183.37 4711.36 1181.85 4703.34 1181.85C4695.81 1181.85 4688.71 1183.23 4682.03 1186C4675.43 1188.7 4670.03 1192.64 4665.84 1197.83C4661.65 1202.94 4659.38 1209.12 4659.02 1216.36H4633.45C4633.88 1204.93 4637.32 1194.91 4643.79 1186.32C4650.25 1177.66 4658.7 1170.91 4669.14 1166.08C4679.65 1161.25 4691.19 1158.84 4703.76 1158.84C4717.26 1158.84 4728.84 1161.57 4738.49 1167.04C4748.15 1172.44 4755.58 1179.57 4760.76 1188.45C4765.94 1197.33 4768.54 1206.92 4768.54 1217.22C4768.54 1229.5 4765.31 1239.98 4758.84 1248.64C4752.45 1257.31 4743.75 1263.31 4732.74 1266.65V1268.35C4746.52 1270.62 4757.28 1276.48 4765.02 1285.93C4772.76 1295.31 4776.63 1306.92 4776.63 1320.77C4776.63 1332.63 4773.4 1343.28 4766.94 1352.73C4760.55 1362.1 4751.81 1369.49 4740.73 1374.89C4729.65 1380.28 4717.05 1382.98 4702.91 1382.98Z" fill="#737370"/>
<path d="M5349.07 745.057L5295.39 683.308L5304.56 675.34L5312.94 684.989L5313.75 684.29C5312.17 679.875 5312.02 675.51 5313.3 671.195C5314.56 666.853 5317.2 662.934 5321.22 659.44C5325.3 655.898 5329.49 653.876 5333.81 653.372C5338.13 652.818 5342.48 653.525 5346.87 655.494L5347.52 654.935C5346.33 650.371 5346.5 645.777 5348.03 641.151C5349.54 636.499 5352.5 632.251 5356.92 628.407C5362.44 623.608 5368.46 621.411 5374.98 621.816C5381.47 622.195 5387.88 626.016 5394.19 633.279L5430.11 674.605L5420.63 682.853L5384.7 641.526C5380.74 636.97 5376.66 634.797 5372.47 635.007C5368.28 635.217 5364.49 636.79 5361.12 639.726C5356.77 643.5 5354.55 647.737 5354.45 652.437C5354.32 657.11 5356 661.443 5359.47 665.437L5394.42 705.638L5384.77 714.025L5348 671.733C5344.95 668.222 5341.35 666.385 5337.21 666.221C5333.05 666.031 5329.17 667.496 5325.58 670.618C5323.11 672.762 5321.38 675.422 5320.38 678.599C5319.4 681.753 5319.27 685.066 5319.98 688.539C5320.7 691.962 5322.38 695.188 5325.01 698.217L5358.56 736.81L5349.07 745.057ZM5466.89 645.178C5462.98 648.579 5458.79 650.929 5454.31 652.227C5449.82 653.499 5445.41 653.543 5441.09 652.36C5436.74 651.15 5432.82 648.535 5429.33 644.514C5426.25 640.977 5424.46 637.503 5423.94 634.094C5423.4 630.658 5423.75 627.297 5424.99 624.011C5426.22 620.724 5427.98 617.549 5430.26 614.487C5432.54 611.374 5434.95 608.384 5437.49 605.516C5440.83 601.771 5443.55 598.765 5445.68 596.497C5447.8 594.179 5449.13 592.246 5449.67 590.698C5450.23 589.126 5449.85 587.576 5448.52 586.049L5448.24 585.727C5444.79 581.76 5441.03 579.622 5436.95 579.311C5432.89 578.978 5428.68 580.709 5424.31 584.507C5419.78 588.444 5417.09 592.523 5416.25 596.743C5415.4 600.962 5415.43 604.652 5416.34 607.812L5404.54 612.424C5402.89 607.274 5402.49 602.489 5403.35 598.069C5404.22 593.598 5405.89 589.562 5408.35 585.958C5410.82 582.305 5413.61 579.127 5416.72 576.425C5418.71 574.701 5421.19 572.961 5424.19 571.207C5427.18 569.403 5430.51 568.176 5434.18 567.527C5437.88 566.854 5441.8 567.279 5445.95 568.803C5450.1 570.326 5454.3 573.54 5458.57 578.445L5493.93 619.128L5484.45 627.375L5477.18 619.014L5476.69 619.433C5477.22 621.332 5477.39 623.698 5477.22 626.53C5477.05 629.362 5476.18 632.398 5474.62 635.637C5473.06 638.875 5470.48 642.056 5466.89 645.178ZM5460.93 635.397C5464.68 632.135 5467.2 628.649 5468.49 624.938C5469.81 621.205 5470.11 617.601 5469.4 614.128C5468.71 610.631 5467.25 607.596 5465.02 605.024L5457.47 596.34C5457.48 597.172 5456.98 598.383 5455.97 599.973C5454.95 601.513 5453.69 603.2 5452.18 605.032C5450.67 606.814 5449.18 608.535 5447.7 610.194C5446.23 611.803 5445.04 613.117 5444.14 614.136C5441.95 616.601 5440.1 619.127 5438.59 621.715C5437.08 624.252 5436.28 626.802 5436.2 629.364C5436.13 631.875 5437.14 634.337 5439.24 636.75C5442.1 640.046 5445.49 641.478 5449.4 641.047C5453.31 640.565 5457.15 638.682 5460.93 635.397ZM5464.65 536.175L5501.39 548.561L5494.24 510.455L5505.17 500.95L5512.07 549.157L5558.85 562.698L5547.91 572.204L5512.29 561.104L5518.33 597.924L5507.39 607.43L5500.17 559.501L5453.71 545.681L5464.65 536.175Z" fill="#737370"/>
<path d="M7054.15 601.491C7047.12 601.491 7040.85 600.284 7035.35 597.869C7029.88 595.455 7025.53 592.099 7022.3 587.802C7019.1 583.469 7017.36 578.445 7017.08 572.727H7030.5C7030.79 576.243 7031.99 579.279 7034.12 581.836C7036.26 584.357 7039.04 586.31 7042.49 587.695C7045.93 589.08 7049.75 589.773 7053.94 589.773C7058.63 589.773 7062.78 588.956 7066.4 587.322C7070.03 585.689 7072.87 583.416 7074.93 580.504C7076.99 577.592 7078.02 574.219 7078.02 570.384C7078.02 566.371 7077.02 562.837 7075.03 559.783C7073.05 556.694 7070.13 554.279 7066.3 552.539C7062.46 550.799 7057.78 549.929 7052.24 549.929H7043.5V538.21H7052.24C7056.57 538.21 7060.37 537.429 7063.63 535.866C7066.94 534.304 7069.51 532.102 7071.36 529.261C7073.24 526.42 7074.18 523.082 7074.18 519.247C7074.18 515.554 7073.37 512.34 7071.73 509.606C7070.1 506.871 7067.79 504.741 7064.81 503.214C7061.86 501.687 7058.38 500.923 7054.37 500.923C7050.6 500.923 7047.05 501.616 7043.71 503.001C7040.41 504.35 7037.71 506.321 7035.62 508.913C7033.52 511.47 7032.38 514.56 7032.21 518.182H7019.42C7019.64 512.464 7021.36 507.457 7024.59 503.161C7027.82 498.828 7032.05 495.455 7037.27 493.04C7042.52 490.625 7048.29 489.418 7054.58 489.418C7061.33 489.418 7067.12 490.785 7071.94 493.519C7076.77 496.218 7080.49 499.787 7083.08 504.226C7085.67 508.665 7086.97 513.459 7086.97 518.608C7086.97 524.751 7085.35 529.989 7082.12 534.322C7078.92 538.654 7074.57 541.655 7069.07 543.324V544.176C7075.96 545.312 7081.34 548.242 7085.21 552.965C7089.08 557.653 7091.01 563.459 7091.01 570.384C7091.01 576.314 7089.4 581.641 7086.17 586.364C7082.97 591.051 7078.6 594.744 7073.06 597.443C7067.52 600.142 7061.22 601.491 7054.15 601.491ZM7158.82 551.42V542.898L7227.43 507.955V521.591L7174.8 546.946L7175.23 546.094V548.224L7174.8 547.372L7227.43 572.727V586.364L7158.82 551.42ZM7334.4 490.909V600H7321.19V504.759H7320.56L7293.92 522.443V509.02L7321.19 490.909H7334.4ZM7404.13 490.909V600H7390.92V504.759H7390.28L7363.65 522.443V509.02L7390.92 490.909H7404.13Z" fill="#737370"/>
<path d="M8163.7 618L8212.49 521.48V520.628H8156.24V508.909H8226.13V521.267L8177.55 618H8163.7ZM8292.01 569.42V560.898L8360.62 525.955V539.591L8307.99 564.946L8308.41 564.094V566.224L8307.99 565.372L8360.62 590.727V604.364L8292.01 569.42ZM8467.59 508.909V618H8454.38V522.759H8453.74L8427.11 540.443V527.02L8454.38 508.909H8467.59ZM8535.83 619.491C8528.79 619.491 8522.53 618.284 8517.02 615.869C8511.55 613.455 8507.2 610.099 8503.97 605.802C8500.78 601.469 8499.04 596.445 8498.75 590.727H8512.17C8512.46 594.243 8513.67 597.279 8515.8 599.836C8517.93 602.357 8520.72 604.31 8524.16 605.695C8527.6 607.08 8531.42 607.773 8535.61 607.773C8540.3 607.773 8544.45 606.956 8548.08 605.322C8551.7 603.689 8554.54 601.416 8556.6 598.504C8558.66 595.592 8559.69 592.219 8559.69 588.384C8559.69 584.371 8558.69 580.837 8556.71 577.783C8554.72 574.694 8551.81 572.279 8547.97 570.539C8544.13 568.799 8539.45 567.929 8533.91 567.929H8525.17V556.21H8533.91C8538.24 556.21 8542.04 555.429 8545.31 553.866C8548.61 552.304 8551.18 550.102 8553.03 547.261C8554.91 544.42 8555.85 541.082 8555.85 537.247C8555.85 533.554 8555.04 530.34 8553.4 527.606C8551.77 524.871 8549.46 522.741 8546.48 521.214C8543.53 519.687 8540.05 518.923 8536.04 518.923C8532.27 518.923 8528.72 519.616 8525.38 521.001C8522.08 522.35 8519.38 524.321 8517.29 526.913C8515.19 529.47 8514.06 532.56 8513.88 536.182H8501.1C8501.31 530.464 8503.03 525.457 8506.26 521.161C8509.49 516.828 8513.72 513.455 8518.94 511.04C8524.2 508.625 8529.97 507.418 8536.25 507.418C8543 507.418 8548.79 508.785 8553.62 511.519C8558.45 514.218 8562.16 517.787 8564.75 522.226C8567.34 526.665 8568.64 531.459 8568.64 536.608C8568.64 542.751 8567.02 547.989 8563.79 552.322C8560.59 556.654 8556.24 559.655 8550.74 561.324V562.176C8557.63 563.312 8563.01 566.242 8566.88 570.965C8570.75 575.653 8572.69 581.459 8572.69 588.384C8572.69 594.314 8571.07 599.641 8567.84 604.364C8564.64 609.051 8560.27 612.744 8554.74 615.443C8549.2 618.142 8542.89 619.491 8535.83 619.491Z" fill="#737370"/>
<path d="M5488.35 1130.86L5479.74 1138.83C5478.25 1137.48 5476.48 1136.32 5474.44 1135.37C5472.42 1134.37 5470.1 1133.88 5467.48 1133.9C5464.86 1133.92 5461.92 1134.76 5458.66 1136.42C5454.2 1138.69 5451 1141.62 5449.08 1145.19C5447.17 1148.71 5447.01 1152.04 5448.6 1155.17C5450.02 1157.96 5452.16 1159.64 5455 1160.22C5457.85 1160.8 5461.7 1160.54 5466.55 1159.42L5478.73 1156.56C5486.05 1154.82 5492.14 1154.77 5497 1156.4C5501.84 1158 5505.56 1161.35 5508.15 1166.44C5510.28 1170.62 5510.98 1174.96 5510.25 1179.48C5509.55 1183.98 5507.55 1188.27 5504.25 1192.34C5500.95 1196.42 5496.46 1199.9 5490.8 1202.78C5483.36 1206.57 5476.39 1208.09 5469.87 1207.35C5463.35 1206.6 5457.86 1203.46 5453.41 1197.92L5462.68 1189.85C5465.7 1193.25 5469.11 1195.22 5472.93 1195.75C5476.77 1196.26 5480.99 1195.35 5485.58 1193.01C5490.8 1190.35 5494.38 1187.13 5496.32 1183.35C5498.28 1179.52 5498.46 1176.04 5496.86 1172.91C5495.57 1170.38 5493.6 1168.71 5490.96 1167.91C5488.3 1167.07 5484.92 1167.16 5480.82 1168.17L5467.21 1171.52C5459.73 1173.34 5453.58 1173.38 5448.75 1171.66C5443.94 1169.88 5440.26 1166.48 5437.69 1161.45C5435.6 1157.34 5434.9 1153.11 5435.6 1148.77C5436.33 1144.41 5438.24 1140.31 5441.34 1136.46C5444.47 1132.59 5448.6 1129.35 5453.72 1126.74C5460.94 1123.06 5467.41 1121.76 5473.13 1122.83C5478.89 1123.88 5483.96 1126.56 5488.35 1130.86ZM5557.68 1168.94C5553.07 1171.3 5548.43 1172.56 5543.78 1172.74C5539.11 1172.89 5534.82 1171.86 5530.91 1169.67C5526.99 1167.44 5523.82 1163.96 5521.4 1159.21C5519.27 1155.03 5518.37 1151.23 5518.69 1147.8C5519 1144.33 5520.15 1141.16 5522.15 1138.27C5524.14 1135.38 5526.62 1132.72 5529.57 1130.3C5532.53 1127.83 5535.6 1125.51 5538.76 1123.35C5542.9 1120.52 5546.27 1118.26 5548.88 1116.58C5551.5 1114.84 5553.26 1113.29 5554.15 1111.91C5555.08 1110.52 5555.09 1108.93 5554.17 1107.13L5553.97 1106.75C5551.59 1102.06 5548.45 1099.08 5544.57 1097.79C5540.71 1096.48 5536.21 1097.14 5531.05 1099.77C5525.7 1102.5 5522.11 1105.8 5520.26 1109.69C5518.42 1113.58 5517.56 1117.17 5517.68 1120.46L5505.11 1122.08C5504.75 1116.68 5505.53 1111.94 5507.43 1107.86C5509.35 1103.73 5511.95 1100.22 5515.21 1097.32C5518.49 1094.37 5521.97 1091.96 5525.64 1090.09C5527.98 1088.9 5530.82 1087.82 5534.14 1086.84C5537.49 1085.81 5541.02 1085.43 5544.74 1085.69C5548.49 1085.93 5552.19 1087.29 5555.84 1089.77C5559.5 1092.25 5562.8 1096.39 5565.75 1102.18L5590.23 1150.21L5579.03 1155.92L5574 1146.04L5573.43 1146.33C5573.47 1148.3 5573.07 1150.64 5572.22 1153.35C5571.36 1156.05 5569.79 1158.79 5567.49 1161.55C5565.19 1164.32 5561.92 1166.78 5557.68 1168.94ZM5554.27 1158.01C5558.7 1155.75 5561.99 1152.98 5564.14 1149.69C5566.32 1146.39 5567.49 1142.96 5567.63 1139.42C5567.81 1135.86 5567.13 1132.56 5565.58 1129.53L5560.36 1119.28C5560.17 1120.09 5559.39 1121.14 5558.02 1122.44C5556.67 1123.69 5555.03 1125.02 5553.12 1126.43C5551.23 1127.79 5549.36 1129.1 5547.53 1130.35C5545.71 1131.56 5544.24 1132.55 5543.12 1133.32C5540.4 1135.18 5538 1137.18 5535.9 1139.33C5533.82 1141.43 5532.43 1143.71 5531.74 1146.17C5531.06 1148.59 5531.44 1151.23 5532.89 1154.07C5534.87 1157.97 5537.81 1160.17 5541.71 1160.7C5545.62 1161.18 5549.81 1160.28 5554.27 1158.01ZM5610.67 1139.79L5573.53 1066.89L5584.35 1061.38L5590.15 1072.77L5591.1 1072.28C5590.64 1067.62 5591.55 1063.35 5593.84 1059.47C5596.11 1055.56 5599.62 1052.4 5604.37 1049.98C5609.18 1047.53 5613.74 1046.58 5618.04 1047.14C5622.37 1047.64 5626.42 1049.38 5630.21 1052.36L5630.97 1051.97C5630.92 1047.25 5632.19 1042.84 5634.8 1038.72C5637.39 1034.57 5641.29 1031.17 5646.51 1028.51C5653.03 1025.19 5659.4 1024.51 5665.63 1026.48C5671.84 1028.42 5677.12 1033.67 5681.49 1042.25L5706.35 1091.04L5695.15 1096.75L5670.29 1047.96C5667.55 1042.58 5664.12 1039.48 5660 1038.67C5655.88 1037.86 5651.83 1038.47 5647.84 1040.5C5642.72 1043.12 5639.54 1046.69 5638.3 1051.22C5637.05 1055.73 5637.62 1060.34 5640.02 1065.05L5664.21 1112.51L5652.82 1118.32L5627.38 1068.39C5625.26 1064.24 5622.22 1061.59 5618.24 1060.43C5614.24 1059.24 5610.13 1059.72 5605.89 1061.88C5602.98 1063.36 5600.65 1065.53 5598.91 1068.37C5597.2 1071.19 5596.27 1074.37 5596.12 1077.92C5595.99 1081.41 5596.83 1084.95 5598.66 1088.52L5621.87 1134.08L5610.67 1139.79ZM5758.17 1066.55C5751.15 1070.13 5744.3 1071.67 5737.62 1071.16C5730.97 1070.61 5724.83 1068.23 5719.23 1064.03C5713.64 1059.79 5708.94 1053.93 5705.13 1046.46C5701.33 1039 5699.34 1031.72 5699.15 1024.64C5698.99 1017.51 5700.54 1011.1 5703.82 1005.4C5707.11 999.662 5712.05 995.115 5718.63 991.761C5722.43 989.827 5726.5 988.549 5730.85 987.928C5735.19 987.308 5739.61 987.648 5744.1 988.947C5748.57 990.216 5752.89 992.716 5757.07 996.448C5761.24 1000.18 5765.06 1005.45 5768.53 1012.25L5770.95 1017L5714.75 1045.63L5709.82 1035.95L5754.62 1013.12C5752.53 1009.01 5749.83 1005.75 5746.54 1003.37C5743.28 1000.96 5739.68 999.59 5735.72 999.255C5731.79 998.903 5727.81 999.76 5723.76 1001.82C5719.3 1004.1 5716 1007.17 5713.87 1011.05C5711.75 1014.87 5710.72 1018.99 5710.77 1023.39C5710.82 1027.78 5711.87 1031.99 5713.92 1036.01L5717.2 1042.47C5720.01 1047.97 5723.34 1052.16 5727.19 1055.02C5731.05 1057.83 5735.2 1059.36 5739.63 1059.61C5744.05 1059.84 5748.52 1058.79 5753.04 1056.49C5755.99 1054.99 5758.44 1053.22 5760.39 1051.19C5762.36 1049.11 5763.79 1046.79 5764.67 1044.23C5765.54 1041.63 5765.81 1038.83 5765.47 1035.81L5777.83 1033.33C5778.57 1037.59 5778.3 1041.79 5777.03 1045.94C5775.74 1050.07 5773.51 1053.91 5770.35 1057.48C5767.17 1061.01 5763.11 1064.03 5758.17 1066.55ZM5837.53 932.375L5842.37 941.867L5803.07 961.89L5798.23 952.398L5837.53 932.375ZM5847.15 1019.3L5804.88 936.339C5802.75 932.162 5801.95 928.182 5802.5 924.398C5803.04 920.614 5804.52 917.228 5806.95 914.24C5809.37 911.251 5812.32 908.871 5815.8 907.097C5818.55 905.695 5820.91 904.771 5822.88 904.328C5824.85 903.884 5826.35 903.634 5827.4 903.579L5829.11 914.905C5828.44 915.006 5827.53 915.171 5826.37 915.402C5825.24 915.617 5823.88 916.136 5822.26 916.958C5818.56 918.845 5816.36 921.14 5815.67 923.845C5815 926.534 5815.59 929.682 5817.43 933.29L5858.35 1013.59L5847.15 1019.3ZM5890.37 997.277L5853.23 924.376L5864.05 918.863L5869.66 929.874L5870.42 929.487C5869.91 925.202 5870.82 921.05 5873.16 917.03C5875.49 913.011 5878.85 909.888 5883.21 907.663C5884.03 907.244 5885.07 906.736 5886.32 906.139C5887.57 905.542 5888.53 905.114 5889.19 904.855L5895 916.245C5894.57 916.344 5893.63 916.645 5892.17 917.148C5890.73 917.604 5889.26 918.211 5887.78 918.968C5884.23 920.774 5881.45 923.13 5879.42 926.035C5877.41 928.894 5876.26 932.031 5875.97 935.448C5875.69 938.817 5876.39 942.147 5878.07 945.437L5901.57 991.57L5890.37 997.277ZM5969.22 959.015C5962.2 962.594 5955.35 964.131 5948.67 963.626C5942.01 963.073 5935.88 960.697 5930.27 956.499C5924.68 952.254 5919.99 946.397 5916.18 938.93C5912.38 931.463 5910.38 924.188 5910.2 917.107C5910.04 909.977 5911.59 903.565 5914.87 897.87C5918.16 892.128 5923.1 887.58 5929.68 884.227C5933.48 882.292 5937.55 881.015 5941.89 880.394C5946.24 879.773 5950.66 880.113 5955.15 881.413C5959.62 882.681 5963.94 885.182 5968.12 888.914C5972.29 892.646 5976.11 897.914 5979.58 904.716L5981.99 909.463L5925.8 938.095L5920.87 928.413L5965.67 905.584C5963.57 901.471 5960.88 898.22 5957.59 895.831C5954.33 893.426 5950.73 892.055 5946.77 891.72C5942.84 891.369 5938.86 892.225 5934.81 894.289C5930.34 896.562 5927.05 899.636 5924.92 903.511C5922.8 907.339 5921.77 911.452 5921.82 915.851C5921.87 920.25 5922.92 924.459 5924.96 928.477L5928.25 934.932C5931.06 940.437 5934.39 944.621 5938.23 947.482C5942.1 950.295 5946.25 951.828 5950.68 952.08C5955.1 952.301 5959.57 951.259 5964.09 948.953C5967.04 947.454 5969.48 945.688 5971.44 943.656C5973.41 941.577 5974.83 939.255 5975.72 936.692C5976.59 934.096 5976.85 931.291 5976.51 928.276L5988.88 925.8C5989.61 930.051 5989.34 934.254 5988.07 938.408C5986.79 942.531 5984.56 946.376 5981.4 949.941C5978.21 953.475 5974.16 956.5 5969.22 959.015ZM6079.34 935.428L6059.7 896.89L6058.75 897.374C6058.61 899.122 6058.29 901.395 6057.8 904.194C6057.3 906.961 6056.04 909.853 6054.03 912.87C6052.01 915.855 6048.65 918.541 6043.97 920.927C6037.9 924.022 6031.75 925.221 6025.54 924.521C6019.31 923.79 6013.44 921.278 6007.95 916.984C6002.43 912.658 5997.71 906.635 5993.78 898.915C5989.88 891.258 5987.8 883.944 5987.56 876.974C5987.32 870.004 5988.75 863.791 5991.87 858.336C5994.99 852.881 5999.62 848.589 6005.76 845.462C6010.51 843.044 6014.66 841.924 6018.22 842.104C6021.79 842.235 6024.81 842.927 6027.28 844.179C6029.77 845.383 6031.75 846.408 6033.22 847.254L6034.54 846.577L6028.64 834.997L6039.47 829.483L6090.54 929.721L6079.34 935.428ZM6040.36 910.091C6044.86 907.802 6048.06 904.697 6049.96 900.775C6051.86 896.822 6052.54 892.347 6052.03 887.348C6051.5 882.317 6049.83 877.049 6047.03 871.544C6044.25 866.102 6041.04 861.743 6037.37 858.467C6033.7 855.16 6029.73 853.157 6025.47 852.459C6021.19 851.729 6016.77 852.525 6012.21 854.846C6007.47 857.265 6004.13 860.498 6002.21 864.547C6000.3 868.547 5999.62 873.023 6000.15 877.974C6000.69 882.878 6002.27 887.892 6004.88 893.018C6007.53 898.207 6010.72 902.519 6014.46 905.952C6018.22 909.338 6022.3 911.483 6026.71 912.387C6031.13 913.243 6035.68 912.477 6040.36 910.091Z" fill="#737370"/>
<path d="M5518.03 1974.11L5510 1982.66C5508.42 1981.41 5506.58 1980.39 5504.48 1979.58C5502.39 1978.72 5500.04 1978.39 5497.43 1978.6C5494.81 1978.8 5491.94 1979.84 5488.8 1981.73C5484.51 1984.3 5481.53 1987.44 5479.86 1991.14C5478.2 1994.79 5478.27 1998.12 5480.08 2001.13C5481.69 2003.81 5483.94 2005.34 5486.82 2005.73C5489.7 2006.11 5493.52 2005.57 5498.28 2004.12L5510.23 2000.42C5517.41 1998.18 5523.49 1997.7 5528.44 1998.98C5533.38 2000.24 5537.33 2003.32 5540.27 2008.22C5542.69 2012.24 5543.69 2016.53 5543.28 2021.08C5542.89 2025.62 5541.2 2030.04 5538.19 2034.33C5535.17 2038.63 5530.94 2042.41 5525.5 2045.69C5518.34 2049.98 5511.49 2051.99 5504.94 2051.7C5498.38 2051.41 5492.69 2048.66 5487.86 2043.44L5496.55 2034.74C5499.79 2037.93 5503.33 2039.66 5507.18 2039.91C5511.05 2040.16 5515.19 2038.95 5519.61 2036.3C5524.63 2033.28 5527.98 2029.82 5529.65 2025.91C5531.33 2021.96 5531.27 2018.48 5529.46 2015.46C5528 2013.03 5525.92 2011.5 5523.23 2010.88C5520.52 2010.23 5517.15 2010.56 5513.12 2011.86L5499.79 2016.14C5492.45 2018.48 5486.32 2018.95 5481.38 2017.57C5476.46 2016.13 5472.55 2013 5469.64 2008.16C5467.26 2004.2 5466.27 2000.03 5466.66 1995.65C5467.08 1991.26 5468.71 1987.03 5471.53 1982.97C5474.38 1978.89 5478.28 1975.37 5483.21 1972.41C5490.15 1968.24 5496.51 1966.49 5502.3 1967.16C5508.11 1967.8 5513.36 1970.12 5518.03 1974.11ZM5589.86 2007.26C5585.41 2009.93 5580.88 2011.52 5576.25 2012.02C5571.6 2012.49 5567.25 2011.77 5563.2 2009.85C5559.13 2007.91 5555.73 2004.65 5552.98 2000.09C5550.57 1996.07 5549.4 1992.34 5549.49 1988.89C5549.55 1985.41 5550.48 1982.16 5552.27 1979.14C5554.06 1976.12 5556.34 1973.3 5559.11 1970.68C5561.9 1968.01 5564.8 1965.48 5567.8 1963.1C5571.73 1959.99 5574.94 1957.5 5577.42 1955.64C5579.92 1953.72 5581.56 1952.05 5582.36 1950.62C5583.19 1949.17 5583.08 1947.58 5582.04 1945.84L5581.82 1945.48C5579.11 1940.97 5575.77 1938.21 5571.81 1937.2C5567.87 1936.16 5563.43 1937.14 5558.46 1940.12C5553.32 1943.21 5549.96 1946.76 5548.39 1950.77C5546.83 1954.78 5546.22 1958.42 5546.57 1961.69L5534.14 1964.18C5533.41 1958.82 5533.85 1954.04 5535.47 1949.83C5537.1 1945.58 5539.44 1941.9 5542.49 1938.78C5545.56 1935.61 5548.86 1932.96 5552.39 1930.84C5554.65 1929.49 5557.4 1928.21 5560.65 1927C5563.91 1925.74 5567.41 1925.11 5571.13 1925.11C5574.89 1925.09 5578.68 1926.19 5582.5 1928.41C5586.32 1930.63 5589.9 1934.53 5593.25 1940.1L5621.01 1986.3L5610.24 1992.78L5604.53 1983.28L5603.99 1983.61C5604.17 1985.57 5603.93 1987.93 5603.27 1990.69C5602.61 1993.45 5601.23 1996.29 5599.13 1999.21C5597.03 2002.13 5593.94 2004.81 5589.86 2007.26ZM5585.69 1996.59C5589.95 1994.03 5593.04 1991.04 5594.95 1987.61C5596.9 1984.16 5597.82 1980.66 5597.72 1977.12C5597.65 1973.56 5596.74 1970.31 5594.99 1967.39L5589.06 1957.53C5588.93 1958.35 5588.23 1959.46 5586.95 1960.85C5585.69 1962.19 5584.15 1963.63 5582.34 1965.17C5580.55 1966.66 5578.78 1968.1 5577.04 1969.48C5575.31 1970.81 5573.91 1971.89 5572.85 1972.74C5570.26 1974.79 5568 1976.95 5566.06 1979.24C5564.13 1981.48 5562.91 1983.85 5562.39 1986.36C5561.88 1988.82 5562.44 1991.42 5564.09 1994.16C5566.34 1997.9 5569.42 1999.9 5573.35 2000.16C5577.28 2000.36 5581.39 1999.17 5585.69 1996.59ZM5640.68 1974.49L5598.54 1904.35L5608.95 1898.1L5615.54 1909.06L5616.45 1908.51C5615.66 1903.89 5616.27 1899.56 5618.29 1895.54C5620.28 1891.48 5623.56 1888.08 5628.13 1885.33C5632.76 1882.55 5637.24 1881.29 5641.57 1881.54C5645.92 1881.75 5650.09 1883.2 5654.07 1885.9L5654.8 1885.46C5654.42 1880.76 5655.39 1876.27 5657.7 1871.98C5659.99 1867.66 5663.65 1863.99 5668.67 1860.97C5674.94 1857.2 5681.25 1856.09 5687.6 1857.62C5693.93 1859.12 5699.57 1863.99 5704.53 1872.24L5732.73 1919.18L5721.95 1925.65L5693.75 1878.72C5690.64 1873.54 5687.01 1870.69 5682.84 1870.17C5678.67 1869.65 5674.67 1870.54 5670.84 1872.85C5665.91 1875.81 5662.98 1879.6 5662.07 1884.21C5661.13 1888.79 5662.03 1893.35 5664.75 1897.88L5692.19 1943.54L5681.23 1950.12L5652.37 1902.09C5649.97 1898.1 5646.75 1895.67 5642.7 1894.79C5638.63 1893.88 5634.55 1894.65 5630.48 1897.1C5627.67 1898.78 5625.5 1901.1 5623.97 1904.05C5622.46 1906.99 5621.75 1910.23 5621.85 1913.78C5621.96 1917.27 5623.05 1920.74 5625.12 1924.18L5651.46 1968.01L5640.68 1974.49ZM5782.71 1891.13C5775.96 1895.19 5769.23 1897.2 5762.54 1897.17C5755.86 1897.08 5749.57 1895.14 5743.69 1891.34C5737.82 1887.5 5732.72 1881.98 5728.4 1874.8C5724.09 1867.61 5721.59 1860.5 5720.92 1853.44C5720.26 1846.34 5721.36 1839.84 5724.23 1833.93C5727.11 1827.97 5731.72 1823.09 5738.05 1819.29C5741.71 1817.09 5745.68 1815.53 5749.97 1814.61C5754.26 1813.69 5758.69 1813.72 5763.26 1814.7C5767.81 1815.66 5772.3 1817.85 5776.72 1821.28C5781.15 1824.71 5785.32 1829.7 5789.26 1836.24L5792 1840.81L5737.94 1873.29L5732.34 1863.98L5775.45 1838.08C5773.07 1834.12 5770.16 1831.07 5766.71 1828.91C5763.29 1826.74 5759.59 1825.63 5755.62 1825.57C5751.68 1825.49 5747.76 1826.62 5743.87 1828.96C5739.58 1831.54 5736.5 1834.84 5734.65 1838.86C5732.81 1842.82 5732.06 1847 5732.42 1851.38C5732.77 1855.77 5734.11 1859.89 5736.44 1863.76L5740.17 1869.97C5743.35 1875.26 5746.96 1879.2 5751 1881.79C5755.05 1884.33 5759.3 1885.57 5763.74 1885.51C5768.16 1885.42 5772.55 1884.07 5776.9 1881.45C5779.73 1879.75 5782.05 1877.82 5783.86 1875.66C5785.68 1873.45 5786.94 1871.03 5787.64 1868.41C5788.33 1865.76 5788.4 1862.94 5787.85 1859.96L5800.01 1856.63C5801.04 1860.82 5801.06 1865.03 5800.08 1869.26C5799.09 1873.46 5797.14 1877.45 5794.23 1881.23C5791.3 1884.98 5787.46 1888.28 5782.71 1891.13ZM5852.52 1751.75L5858.01 1760.88L5820.2 1783.6L5814.71 1774.47L5852.52 1751.75ZM5868.18 1837.79L5820.22 1757.98C5817.81 1753.96 5816.74 1750.05 5817.02 1746.24C5817.29 1742.42 5818.54 1738.94 5820.75 1735.79C5822.96 1732.64 5825.73 1730.06 5829.08 1728.05C5831.73 1726.46 5834.02 1725.37 5835.95 1724.79C5837.88 1724.21 5839.37 1723.86 5840.41 1723.73L5842.9 1734.91C5842.24 1735.06 5841.34 1735.29 5840.2 1735.6C5839.1 1735.89 5837.77 1736.5 5836.21 1737.44C5832.65 1739.58 5830.62 1742.02 5830.12 1744.77C5829.64 1747.49 5830.45 1750.59 5832.53 1754.06L5878.95 1831.32L5868.18 1837.79ZM5909.76 1812.81L5867.62 1742.68L5878.03 1736.42L5884.4 1747.01L5885.13 1746.57C5884.32 1742.34 5884.94 1738.13 5886.99 1733.96C5889.04 1729.78 5892.17 1726.44 5896.37 1723.91C5897.16 1723.44 5898.16 1722.86 5899.36 1722.17C5900.57 1721.49 5901.49 1721 5902.14 1720.69L5908.72 1731.65C5908.3 1731.78 5907.38 1732.14 5905.96 1732.75C5904.56 1733.3 5903.14 1734.01 5901.71 1734.87C5898.3 1736.92 5895.69 1739.46 5893.87 1742.5C5892.06 1745.49 5891.13 1748.7 5891.08 1752.13C5891.04 1755.51 5891.97 1758.79 5893.87 1761.95L5920.54 1806.33L5909.76 1812.81ZM5985.75 1769.14C5978.99 1773.2 5972.26 1775.21 5965.57 1775.17C5958.89 1775.08 5952.61 1773.14 5946.72 1769.35C5940.85 1765.5 5935.75 1759.99 5931.44 1752.8C5927.12 1745.62 5924.63 1738.5 5923.95 1731.45C5923.29 1724.35 5924.39 1717.84 5927.26 1711.93C5930.15 1705.98 5934.75 1701.09 5941.09 1697.29C5944.74 1695.1 5948.71 1693.54 5953 1692.62C5957.3 1691.69 5961.73 1691.72 5966.3 1692.71C5970.85 1693.66 5975.33 1695.85 5979.76 1699.29C5984.18 1702.72 5988.36 1707.71 5992.29 1714.25L5995.03 1718.82L5940.97 1751.3L5935.38 1741.98L5978.48 1716.09C5976.1 1712.13 5973.19 1709.07 5969.74 1706.92C5966.32 1704.75 5962.63 1703.63 5958.66 1703.57C5954.72 1703.5 5950.8 1704.63 5946.9 1706.97C5942.61 1709.55 5939.54 1712.85 5937.68 1716.86C5935.84 1720.83 5935.1 1725 5935.45 1729.39C5935.81 1733.77 5937.15 1737.9 5939.47 1741.76L5943.2 1747.97C5946.38 1753.27 5949.99 1757.21 5954.03 1759.79C5958.08 1762.33 5962.33 1763.57 5966.77 1763.51C5971.19 1763.43 5975.58 1762.07 5979.93 1759.46C5982.76 1757.76 5985.08 1755.83 5986.89 1753.66C5988.71 1751.45 5989.97 1749.04 5990.68 1746.42C5991.36 1743.77 5991.43 1740.95 5990.88 1737.97L6003.05 1734.63C6004.07 1738.82 6004.1 1743.03 6003.12 1747.27C6002.12 1751.47 6000.17 1755.46 5997.26 1759.24C5994.33 1762.98 5990.5 1766.29 5985.75 1769.14ZM6093.95 1737.93L6071.68 1700.85L6070.76 1701.4C6070.74 1703.16 6070.58 1705.45 6070.29 1708.27C6069.98 1711.07 6068.93 1714.04 6067.14 1717.19C6065.32 1720.31 6062.17 1723.22 6057.66 1725.93C6051.82 1729.44 6045.77 1731.06 6039.52 1730.8C6033.25 1730.51 6027.23 1728.41 6021.45 1724.51C6015.65 1720.58 6010.52 1714.9 6006.05 1707.47C6001.63 1700.11 5999.05 1692.95 5998.32 1686.02C5997.59 1679.08 5998.59 1672.78 6001.32 1667.12C6004.05 1661.47 6008.37 1656.86 6014.28 1653.31C6018.84 1650.57 6022.91 1649.16 6026.47 1649.09C6030.04 1648.98 6033.11 1649.46 6035.66 1650.53C6038.23 1651.56 6040.27 1652.44 6041.79 1653.19L6043.07 1652.42L6036.38 1641.28L6046.79 1635.02L6104.73 1731.45L6093.95 1737.93ZM6053.31 1715.37C6057.63 1712.77 6060.6 1709.45 6062.23 1705.41C6063.84 1701.33 6064.22 1696.82 6063.36 1691.87C6062.48 1686.89 6060.45 1681.75 6057.26 1676.45C6054.12 1671.22 6050.6 1667.09 6046.72 1664.08C6042.82 1661.04 6038.72 1659.32 6034.42 1658.92C6030.11 1658.49 6025.75 1659.59 6021.37 1662.22C6016.81 1664.97 6013.7 1668.43 6012.07 1672.6C6010.45 1676.72 6010.07 1681.24 6010.94 1686.14C6011.83 1690.99 6013.76 1695.88 6016.72 1700.81C6019.72 1705.81 6023.2 1709.88 6027.18 1713.05C6031.16 1716.16 6035.38 1718.02 6039.84 1718.61C6044.31 1719.16 6048.8 1718.08 6053.31 1715.37Z" fill="#737370"/>
<path d="M3585.29 1513.82V1732H3558.87V1541.52H3557.59L3504.32 1576.89V1550.04L3558.87 1513.82H3585.29ZM3724.74 1513.82V1732H3698.32V1541.52H3697.04L3643.78 1576.89V1550.04L3698.32 1513.82H3724.74ZM4631.24 1732V1712.82L4703.26 1633.99C4711.71 1624.76 4718.67 1616.73 4724.14 1609.91C4729.61 1603.02 4733.66 1596.56 4736.28 1590.52C4738.98 1584.41 4740.33 1578.02 4740.33 1571.35C4740.33 1563.68 4738.49 1557.04 4734.79 1551.42C4731.17 1545.81 4726.2 1541.48 4719.88 1538.43C4713.56 1535.37 4706.45 1533.85 4698.57 1533.85C4690.19 1533.85 4682.88 1535.59 4676.62 1539.07C4670.45 1542.48 4665.65 1547.27 4662.24 1553.45C4658.9 1559.63 4657.24 1566.87 4657.24 1575.18H4632.09C4632.09 1562.4 4635.04 1551.18 4640.94 1541.52C4646.83 1531.86 4654.86 1524.33 4665.01 1518.93C4675.24 1513.53 4686.71 1510.84 4699.42 1510.84C4712.21 1510.84 4723.54 1513.53 4733.41 1518.93C4743.28 1524.33 4751.02 1531.61 4756.63 1540.77C4762.24 1549.93 4765.05 1560.12 4765.05 1571.35C4765.05 1579.37 4763.59 1587.22 4760.68 1594.89C4757.84 1602.49 4752.87 1610.98 4745.77 1620.35C4738.73 1629.66 4728.97 1641.02 4716.47 1654.44L4667.46 1706.86V1708.56H4768.88V1732H4631.24Z" fill="#737370"/>
<path d="M3585.29 1876.82V2095H3558.87V1904.52H3557.59L3504.32 1939.89V1913.04L3558.87 1876.82H3585.29ZM3721.76 2097.98C3707.7 2097.98 3695.16 2095.57 3684.15 2090.74C3673.22 2085.91 3664.52 2079.2 3658.05 2070.6C3651.66 2061.94 3648.18 2051.89 3647.61 2040.45H3674.46C3675.03 2047.49 3677.44 2053.56 3681.7 2058.67C3685.96 2063.71 3691.54 2067.62 3698.43 2070.39C3705.32 2073.16 3712.95 2074.55 3721.33 2074.55C3730.71 2074.55 3739.02 2072.91 3746.26 2069.64C3753.51 2066.38 3759.19 2061.83 3763.31 2056.01C3767.43 2050.18 3769.49 2043.44 3769.49 2035.77C3769.49 2027.74 3767.5 2020.67 3763.52 2014.57C3759.54 2008.39 3753.72 2003.56 3746.05 2000.08C3738.38 1996.6 3729 1994.86 3717.92 1994.86H3700.45V1971.42H3717.92C3726.59 1971.42 3734.19 1969.86 3740.72 1966.73C3747.33 1963.61 3752.48 1959.2 3756.17 1953.52C3759.93 1947.84 3761.82 1941.16 3761.82 1933.49C3761.82 1926.11 3760.18 1919.68 3756.92 1914.21C3753.65 1908.74 3749.03 1904.48 3743.07 1901.43C3737.17 1898.37 3730.21 1896.85 3722.19 1896.85C3714.66 1896.85 3707.56 1898.23 3700.88 1901C3694.27 1903.7 3688.88 1907.64 3684.69 1912.83C3680.5 1917.94 3678.22 1924.12 3677.87 1931.36H3652.3C3652.73 1919.93 3656.17 1909.91 3662.63 1901.32C3669.1 1892.66 3677.55 1885.91 3687.99 1881.08C3698.5 1876.25 3710.04 1873.84 3722.61 1873.84C3736.11 1873.84 3747.68 1876.57 3757.34 1882.04C3767 1887.44 3774.42 1894.57 3779.61 1903.45C3784.79 1912.33 3787.38 1921.92 3787.38 1932.22C3787.38 1944.5 3784.15 1954.98 3777.69 1963.64C3771.3 1972.31 3762.6 1978.31 3751.59 1981.65V1983.35C3765.37 1985.62 3776.13 1991.48 3783.87 2000.93C3791.61 2010.31 3795.48 2021.92 3795.48 2035.77C3795.48 2047.63 3792.25 2058.28 3785.79 2067.73C3779.39 2077.1 3770.66 2084.49 3759.58 2089.89C3748.5 2095.28 3735.89 2097.98 3721.76 2097.98ZM4759.51 1876.82V2095H4733.09V1904.52H4731.81L4678.54 1939.89V1913.04L4733.09 1876.82H4759.51Z" fill="#737370"/>
<path d="M3506.4 2458L3603.99 2264.96V2263.26H3491.49V2239.82H3631.26V2264.53L3534.1 2458H3506.4ZM4760.18 2239.82V2458H4733.76V2267.52H4732.48L4679.21 2302.89V2276.04L4733.76 2239.82H4760.18Z" fill="#737370"/>
<path d="M3593.31 1019.98C3579.24 1019.98 3566.71 1017.57 3555.7 1012.74C3544.76 1007.91 3536.06 1001.2 3529.6 992.604C3523.21 983.939 3519.73 973.889 3519.16 962.455H3546.01C3546.57 969.486 3548.99 975.558 3553.25 980.672C3557.51 985.714 3563.09 989.621 3569.98 992.391C3576.87 995.161 3584.5 996.545 3592.88 996.545C3602.26 996.545 3610.57 994.912 3617.81 991.645C3625.05 988.378 3630.74 983.832 3634.86 978.009C3638.97 972.185 3641.03 965.438 3641.03 957.767C3641.03 949.741 3639.05 942.675 3635.07 936.567C3631.09 930.388 3625.27 925.558 3617.6 922.078C3609.93 918.598 3600.55 916.858 3589.47 916.858H3572V893.42H3589.47C3598.14 893.42 3605.74 891.858 3612.27 888.733C3618.88 885.608 3624.02 881.205 3627.72 875.523C3631.48 869.841 3633.36 863.165 3633.36 855.494C3633.36 848.108 3631.73 841.68 3628.46 836.212C3625.2 830.743 3620.58 826.482 3614.61 823.428C3608.72 820.374 3601.76 818.847 3593.73 818.847C3586.2 818.847 3579.1 820.232 3572.43 823.001C3565.82 825.7 3560.42 829.642 3556.23 834.827C3552.04 839.94 3549.77 846.119 3549.41 853.364H3523.85C3524.27 841.929 3527.72 831.915 3534.18 823.321C3540.64 814.656 3549.1 807.909 3559.54 803.08C3570.05 798.25 3581.59 795.835 3594.16 795.835C3607.65 795.835 3619.23 798.57 3628.89 804.038C3638.55 809.436 3645.97 816.574 3651.15 825.452C3656.34 834.33 3658.93 843.918 3658.93 854.216C3658.93 866.503 3655.7 876.979 3649.24 885.643C3642.85 894.308 3634.14 900.31 3623.14 903.648V905.352C3636.91 907.625 3647.67 913.484 3655.42 922.93C3663.16 932.305 3667.03 943.918 3667.03 957.767C3667.03 969.628 3663.8 980.281 3657.33 989.727C3650.94 999.102 3642.21 1006.49 3631.13 1011.89C3620.05 1017.28 3607.44 1019.98 3593.31 1019.98ZM4638.73 1017V997.824L4710.74 918.989C4719.19 909.756 4726.15 901.73 4731.62 894.912C4737.09 888.023 4741.14 881.56 4743.77 875.523C4746.47 869.415 4747.82 863.023 4747.82 856.347C4747.82 848.676 4745.97 842.036 4742.28 836.425C4738.65 830.814 4733.68 826.482 4727.36 823.428C4721.04 820.374 4713.94 818.847 4706.06 818.847C4697.67 818.847 4690.36 820.587 4684.11 824.067C4677.93 827.476 4673.14 832.27 4669.73 838.449C4666.39 844.628 4664.72 851.872 4664.72 860.182H4639.58C4639.58 847.398 4642.53 836.176 4648.42 826.517C4654.32 816.858 4662.34 809.33 4672.5 803.932C4682.72 798.534 4694.19 795.835 4706.91 795.835C4719.69 795.835 4731.02 798.534 4740.89 803.932C4750.76 809.33 4758.51 816.609 4764.12 825.771C4769.73 834.933 4772.53 845.125 4772.53 856.347C4772.53 864.372 4771.08 872.22 4768.16 879.891C4765.32 887.49 4760.35 895.977 4753.25 905.352C4746.22 914.656 4736.45 926.02 4723.95 939.443L4674.95 991.858V993.562H4776.37V1017H4638.73Z" fill="#737370"/>
<line x1="5280" y1="440" x2="6165" y2="440" stroke="#737370" stroke-width="10"/>
<line x1="7918" y1="440" x2="8503" y2="440" stroke="#737370" stroke-width="10"/>
<line x1="5376" y1="2349.07" x2="5376" y2="1985.93" stroke="#737370" stroke-width="10"/>
<line x1="4791" y1="2344" x2="5376" y2="2344" stroke="#737370" stroke-width="10"/>
<line x1="4801" y1="1981" x2="5386" y2="1981" stroke="#737370" stroke-width="10"/>
<line x1="5391" y1="908" x2="5391" y2="1623" stroke="#737370" stroke-width="10"/>
<line x1="4801" y1="1618" x2="5386" y2="1618" stroke="#737370" stroke-width="10"/>
<line x1="4801" y1="903" x2="5386" y2="903" stroke="#737370" stroke-width="10"/>
<line x1="6313" y1="440" x2="7732" y2="440" stroke="#737370" stroke-width="10"/>
<path d="M5726.99 445.271C5727.14 442.514 5725.03 440.157 5722.27 440.007L5677.34 437.564C5674.58 437.414 5672.22 439.528 5672.07 442.285C5671.92 445.042 5674.04 447.399 5676.79 447.549L5716.74 449.721L5714.56 489.662C5714.41 492.419 5716.53 494.776 5719.29 494.926C5722.04 495.076 5724.4 492.962 5724.55 490.205L5726.99 445.271ZM4804.34 1274.72L5725.34 448.722L5718.66 441.278L4797.66 1267.28L4804.34 1274.72Z" fill="#737370"/>
<path d="M8214.86 441.178C8215.51 438.494 8213.86 435.792 8211.18 435.141L8167.44 424.538C8164.76 423.888 8162.06 425.536 8161.41 428.219C8160.76 430.903 8162.4 433.606 8165.09 434.257L8203.96 443.681L8194.54 482.555C8193.89 485.239 8195.54 487.942 8198.22 488.592C8200.9 489.243 8203.61 487.595 8204.26 484.911L8214.86 441.178ZM5378.6 2172.27L8212.6 444.269L8207.4 435.731L5373.4 2163.73L5378.6 2172.27Z" fill="#737370"/>
<path d="M7010.76 441.532C7011.61 438.904 7010.16 436.087 7007.53 435.241L6964.7 421.451C6962.07 420.605 6959.25 422.05 6958.41 424.679C6957.56 427.307 6959 430.124 6961.63 430.97L6999.71 443.227L6987.45 481.303C6986.61 483.932 6988.05 486.749 6990.68 487.595C6993.31 488.441 6996.12 486.996 6996.97 484.367L7010.76 441.532ZM5388.28 1275.45L7008.28 444.449L7003.72 435.551L5383.72 1266.55L5388.28 1275.45Z" fill="#737370"/>
</svg>
